<svg
  xmlns="http://www.w3.org/2000/svg"
  fill="currentColor"
  viewBox="0 0 448 512"
  height="1em"
  width="1em"
  class="size-4"
>
  <path d="M224.1 141c-63.6 0-115.9 52.3-115.9 116s52.3 116 115.9 116 116-52.3 116-116-52.4-116-116-116zm0 183.2c-37.1 0-67.2-30.1-67.2-67.2 0-37.2 30.1-67.2 67.2-67.2 37.1 0 67.2 30.1 67.2 67.2 0 37.1-30.1 67.2-67.2 67.2zm146.3-168.7c0 14.5-11.8 26.2-26.2 26.2s-26.2-11.8-26.2-26.2 11.8-26.2 26.2-26.2c14.5 0 26.2 11.8 26.2 26.2zm75.5 26.2c0 98.7-80.4 179.1-179.1 179.1-98.6 0-179.1-80.4-179.1-179.1 0-98.7 80.4-179.1 179.1-179.1 98.7 0 179.1 80.4 179.1 179.1zm-288.4 19.6c16.2 0 29.3-13.1 29.3-29.3 0-16.2-13.1-29.3-29.3-29.3-16.2 0-29.3 13.1-29.3 29.3 0 16.2 13.1 29.3 29.3 29.3zm177.1-100.2c-47.4 0-86.5 39.1-86.5 86.5 0 47.4 39.1 86.5 86.5 86.5 47.4 0 86.5-39.1 86.5-86.5 0-47.4-39.1-86.5-86.5-86.5zm86.5 127.3c-16.7 0-30.2-13.6-30.2-30.2 0-16.7 13.6-30.2 30.2-30.2 16.7 0 30.2 13.6 30.2 30.2 0 16.7-13.5 30.2-30.2 30.2z"/>
</svg>
